<?xml version="1.0" standalone="no"?>
<!DOCTYPE svg PUBLIC "-//W3C//DTD SVG 1.1//EN" "http://www.w3.org/Graphics/SVG/1.1/DTD/svg11.dtd">
<svg xmlns="http://www.w3.org/2000/svg">
<metadata>Generated by Fontastic.me</metadata>
<defs>
<font id="elshaddai" horiz-adv-x="512">
<font-face font-family="elshaddai" units-per-em="512" ascent="480" descent="-32"/>
<missing-glyph horiz-adv-x="512" />

<glyph unicode="&#97;" d="M365 512l-72 0c0 0-112 12-112-108 0-25 0-49 0-49l-46 0 0-94 46 0 0-249 106 0 0 249 62 0 15 94-77 0 0 38c0 0-6 32 32 32l45 0z"/>
<glyph unicode="&#98;" d="M235 258c0-65-53-118-118-118-64 0-117 53-117 118 0 65 53 117 117 117 65 0 118-52 118-117z m277 0c0-65-53-118-118-118-64 0-117 53-117 118 0 65 53 117 117 117 65 0 118-52 118-117z"/>
<glyph unicode="&#99;" d="M376 1c-25 0-121 25-236 140-119 119-141 217-140 237 1 14 16 64 82 125 3 2 10 9 21 9 7 0 13-2 19-7 13-12 80-94 91-117 10-19 5-35-15-47l-5-3c-52-35-52-48-52-48 10-20 41-64 63-86 21-21 65-52 86-62 0 0 13 0 47 52l3 4c4 7 12 21 30 21 5 0 12-2 18-5 23-11 105-78 116-92 7-8 8-15 7-21-1-9-7-16-9-18-61-66-111-82-125-82 0 0-1 0-1 0z m-273 485c0-1-2-2-2-3-60-55-74-100-75-106 0-1 9-93 133-217 125-125 216-133 217-133l0-13 0 13c7 0 52 14 107 74 0 1 1 1 1 2 0 0 1 1 1 1 0 0 0 0-1 1-9 11-89 76-108 85-3 2-5 2-6 2-2 0-4-2-7-7-1-2-2-3-2-4l-2-2c-29-44-51-64-70-64-4 0-8 1-11 3-23 11-69 43-93 68-24 24-56 70-68 92-13 28 26 58 61 82l3 1c1 1 2 2 3 3 8 4 9 5 5 13-9 19-74 99-84 108-1 0-2 0-2 1z"/>
<glyph unicode="&#100;" d="M244 488c5-3 9-7 15-12 5-5 10-12 15-19 4-7 8-16 12-26 3-10 4-21 4-34 0-25-5-44-16-58-5-7-10-14-16-20-6-6-12-12-19-18-4-4-8-9-12-14-4-5-6-12-6-19 0-7 2-13 7-17 3-5 6-9 10-12l23-19c14-11 26-24 37-38 10-14 15-33 16-56 0-33-15-62-43-87-30-26-74-39-130-40-47 0-82 10-106 30-23 18-35 40-35 66 0 12 4 26 11 41 8 16 21 29 41 41 22 12 45 21 69 25 23 3 43 5 59 6-5 6-9 13-13 20-5 7-7 16-7 26 0 6 1 11 3 15 1 4 3 8 4 11-8-1-15-1-22-1-36 0-63 12-82 34-20 20-29 44-29 72 0 33 14 63 41 90 20 16 40 26 60 31 21 4 40 6 58 6l135 0-42-24z m26-388c0 17-5 32-16 44-12 12-31 27-56 45-4 0-9 0-15 0-3 1-12 0-26-1-14-2-29-5-43-10-4-1-8-3-15-5-6-3-12-7-19-13-6-5-11-12-15-20-5-9-8-19-8-31 0-24 11-43 32-58 21-16 49-24 84-24 32 0 56 7 73 21 16 13 24 30 24 52z m-94 197c18 1 33 7 45 19 5 9 9 18 11 27 1 9 1 16 1 22 0 27-7 54-20 81-7 13-15 23-25 31-11 8-23 12-37 13-18-1-33-8-46-22-10-15-15-32-14-51 0-24 7-49 21-76 7-12 16-22 27-31 11-9 23-13 37-13z m334 141l-71 0 0 71-34 0 0-71-71 0 0-34 71 0 0-71 34 0 0 71 71 0z"/>
<glyph unicode="&#101;" d="M65 512l378 0c36 0 65-29 65-65l0-378c0-36-29-65-65-65l-378 0c-36 0-65 29-65 65l0 378c0 36 29 65 65 65z m305-56c-12 0-23-11-23-23l0-55c0-13 11-23 23-23l58 0c12 0 23 10 23 23l0 55c0 12-11 23-23 23z m81-159l-45 0c4-14 7-28 7-44 0-84-71-153-158-153-88 0-158 69-158 153 0 16 2 30 6 44l-46 0 0-215c0-11 9-20 20-20l354 0c11 0 20 9 20 20z m-196 61c-57 0-102-44-102-99 0-55 45-99 102-99 56 0 102 44 102 99 0 55-46 99-102 99z"/>
<glyph unicode="&#102;" d="M500 352c-2 3-10 13-220 134-16 9-35 9-50 1-90-54-198-118-205-125-16-12-25-32-25-52l0-214c0-38 30-68 68-68l379 0c37 0 68 30 68 68l0 214c0 15-5 30-15 42z m-14-256c0-22-18-40-39-40l-379 0c-22 0-40 18-40 40l0 214c0 12 6 23 15 30 6 5 85 53 201 122 3 2 7 3 10 3 4 0 8-1 12-4 121-69 204-119 212-127 5-7 8-15 8-24l0-214z m-62 211l-169-100-172 101c-7 4-15 2-19-5-4-6-2-15 5-19l179-106c2-1 4-2 7-2 2 0 5 1 7 2l177 105c6 4 9 13 5 19-4 7-13 9-20 5z"/>
<glyph unicode="&#103;" d="M480 18c-15-15-34-22-41-15l-132 124c25 12 47 29 64 50l125-118c7-7 0-25-16-41z m-279 122c-104 0-188 83-188 186 0 103 84 186 188 186 104 0 188-83 188-186 0-103-84-186-188-186z m0 319c-74 0-134-60-134-133 0-74 60-133 134-133 74 0 134 59 134 133 0 73-60 133-134 133z"/>
<glyph unicode="&#104;" d="M502 253c3 22-2 44-14 58-21 23-41 25-68 25l-42 0c15 71 3 117-38 138-10 4-21 4-30-3-9-6-14-17-13-27 0 0 1-54-29-87-20-21-31-31-39-37-17-13-31-24-45-60-1-4-1-7-1-11l0-153c0-11 5-20 14-26 9-5 55-32 92-32l108 0c6 0 22 1 37 11 11 8 25 22 29 47 13 9 36 32 33 69 8 9 17 25 18 47 0 22-8 34-12 41z m-29-74l-5-4 1-7c4-31-16-48-25-53l-6-4 0-6c-2-15-8-27-18-34-10-6-20-7-23-7l-2 0-106 0c-25 0-61 18-78 29-1 1-2 2-2 3l0 154c11 30 21 37 36 49 13 10 26 22 42 40 39 42 37 107 37 108 0 1 0 2 1 3 1 0 1 0 3 0 32-16 38-56 20-124l-4-17 76 0c23 0 34 0 48-16 8-8 10-24 7-40l-1-4 2-4c0-2 1-3 3-6 4-5 8-12 8-27 0-17-9-28-14-33z m-366 119l-53 0c-16 0-29-5-39-15-10-10-15-24-15-42l10-141c0-1 0-2 0-3 5-31 24-48 54-48l44 0c32 0 53 20 53 52l0 144c0 32-22 53-54 53z m27-197c0-17-8-25-26-25l-44 0c-17 0-25 7-28 26l-10 140c0 9 3 17 8 22 5 5 12 7 20 7l53 0c18 0 27-9 27-26z"/>
<glyph unicode="&#105;" d="M429 356l-429 0 0-351 515 0 0 351z m-44-232c0-42-29-75-66-75l-209 0c-37 0-67 33-67 75l0 100c0 42 30 76 67 76l209 0c37 0 66-34 66-76l0-100z m70 56c-10 0-18 8-18 18 0 10 8 18 18 18 9 0 17-8 17-18 0-10-8-18-17-18z m1 63c-16 0-30 13-30 30 0 17 14 30 30 30 17 0 31-13 31-30 0-17-14-30-31-30z m-286-3l0-136 138 68z m-88 244l30 19 95-151-31-19z m298 0l19-30-220-138-19 31z"/>
<glyph unicode="&#106;" d="M0 174c0 0 103-91 185-1 0 0-14 0-23 7-8 6-11 20-11 20 0 0 26 14 16 25 0 0-56 1-59 36l33 21c0 0-13-6-26 0 0 0-34 25-27 50l28 2c0 0-49 35-35 62 0 0 4 23 165-85 0 0 28 102 80 125 0 0 9-5 9-9 0 0 7 16 17 18 0 0 11-11 4-17 0 0 20 14 29 7 0 0 0-12-29-28 0 0 74-4 100-104 0 0 32-12 62 8 0 0 3-15-44-36 0 0 4-7 43-1 0 0 0-30-62-30 0 0-52-154-180-175-154-26-263 53-275 105z"/>
<glyph unicode="&#107;" d="M212 512l-28 0-20-75-20 75-30 0c6-18 12-35 18-53 9-27 15-47 18-60l0-77 28 0 0 77z m77-144l0 49c0 15-3 27-8 34-7 9-17 14-30 14-13 0-23-5-30-14-6-7-8-19-8-34l0-49c0-15 2-27 8-34 7-9 17-14 30-14 13 0 23 5 30 14 5 7 8 19 8 34z m-26-5c0-13-4-20-12-20-9 0-13 7-13 20l0 59c0 14 4 20 13 20 8 0 12-6 12-20z m121-41l0 142-26 0 0-109c-6-8-11-12-16-12-4 0-6 2-6 6-1 1-1 4-1 10l0 105-25 0 0-113c0-10 1-16 2-21 3-7 8-10 17-10 9 0 19 5 29 17l0-15z m-81-144c-4 0-8-2-13-6l0-86c5-4 9-6 13-6 7 0 11 6 11 19l0 60c0 12-4 19-11 19z m94 0c-8 0-12-7-12-20l0-13 25 0 0 13c0 13-4 20-13 20z m63 71c-6 22-24 39-46 41-52 6-105 6-157 6-53 0-106 0-158-6-22-2-40-19-45-41-8-32-8-67-8-99 0-33 0-68 7-100 6-22 24-39 46-41 52-6 105-6 157-6 53 0 106 0 158 6 22 2 40 19 45 41 8 32 8 67 8 100 0 32 0 67-7 99z m-294-29l-30 0 0-161-29 0 0 161-29 0 0 27 88 0 0-27z m77-161l-25 0 0 15c-11-12-20-17-30-17-8 0-13 3-16 10-1 4-2 11-2 21l0 111 25 0 0-103c0-6 0-9 1-10 0-4 2-6 5-6 6 0 11 4 17 12l0 107 25 0z m97 42c0-13-1-23-3-29-3-10-10-15-20-15-9 0-18 5-27 15l0-13-25 0 0 188 25 0 0-62c9 11 17 16 27 16 10 0 17-6 20-16 2-6 3-15 3-28l0-56z m96 23l-51 0 0-25c0-13 4-19 13-19 6 0 10 3 11 10 0 1 1 7 1 17l26 0 0-3c0-9-1-14-1-17-1-5-3-11-6-15-7-10-17-15-31-15-13 0-23 4-30 14-6 7-9 18-9 33l0 49c0 15 3 26 8 33 8 10 18 15 31 15 12 0 23-5 30-15 5-7 8-18 8-33l0-29z"/>
<glyph unicode="&#108;" d="M260 464c-4 2-10 1-14-2l-132-98c-3-2-4-4-5-7l-68 0c-23 0-41-18-41-41l0-119c0-22 18-41 41-41l68 0c1-2 2-5 5-7l132-98c3-2 5-3 8-3 2 0 5 1 6 2 5 2 8 7 8 12l0 389c0 6-3 10-8 13z m-233-267l0 119c0 8 7 14 14 14l67 0 0-146-67 0c-7 0-14 6-14 13z m214-108l-105 78 0 179 105 78z m108 290c-6 4-14 2-18-4-5-6-3-15 4-19 35-22 56-60 56-101 0-42-21-79-56-102-6-4-8-12-4-18 2-5 7-7 11-7 3 0 5 1 8 2 43 27 68 74 68 125 0 51-25 97-69 124z m37 95c-7 3-15 1-19-6-3-7-1-15 6-18 73-39 118-113 118-195 0-77-39-147-104-187-7-4-9-13-5-19 3-4 7-6 12-6 2 0 5 0 7 2 73 45 117 124 117 210 0 92-51 176-132 219z"/>
<glyph unicode="&#109;" d="M37 292c15-18 36-30 59-35 16-3 34-3 51 0 18 3 35 10 50 19 8 5 15 10 22 16-7 6-14 11-22 16-15 9-32 16-50 19-17 3-35 3-51 0-23-5-44-17-59-35z m53-66c-40 8-72 30-90 67 21 36 48 56 90 65 20 4 42 4 63 0 21-3 42-11 61-23 9-5 18-11 26-19 8 13 15 29 18 46l32-6c-5-25-15-46-28-64 13-18 23-39 28-64l-32-6c-3 17-10 33-18 46-8-8-17-14-26-19-19-12-40-20-61-23-21-4-43-4-63 0z m218-46c6-9 16-14 27-16 7-2 16-2 24 0 8 1 16 4 23 8 4 2 7 5 10 8-3 3-6 5-10 7-7 5-15 8-23 9-8 1-17 1-24 0-11-2-21-8-27-16z m24-31c-19 4-33 14-42 31 10 17 22 26 42 30 9 2 19 2 29 1 10-2 20-6 29-11 4-3 8-6 12-9 4 6 7 13 8 21l15-3c-2-11-7-21-13-29 6-9 11-18 13-30l-15-3c-1 8-4 15-8 21-4-3-8-6-12-8-9-6-19-9-29-11-10-2-20-2-29 0z m24 150c9-12 22-19 37-22 10-2 21-2 32 0 11 2 22 6 31 12 5 3 10 6 14 10-4 4-9 7-14 10-9 6-20 10-31 12-11 2-22 2-32 0-15-3-28-10-37-22z m32-42c-25 6-45 19-56 42 13 23 30 36 56 41 13 3 27 3 40 1 14-3 27-7 39-15 6-3 11-7 16-12 6 9 10 18 12 29l20-4c-4-15-10-29-18-40 8-11 14-25 18-40l-20-4c-2 11-6 20-12 29-5-5-10-9-16-12-12-8-25-13-39-15-13-2-27-2-40 0z"/>
<glyph unicode="&#110;" d="M461 3l-420 0c-11 0-21 11-21 25l0 416c0 14 10 26 21 26l420 0c12 0 21-12 21-26l0-416c0-14-9-25-21-25z m-400 51l380 0 0 365-380 0z m322 322c-11 0-21 12-21 26l0 85c0 14 10 25 21 25 11 0 20-11 20-25l0-85c0-14-9-26-20-26z m-261 0c-12 0-21 12-21 26l0 85c0 14 9 25 21 25 11 0 20-11 20-25l0-85c0-14-9-26-20-26z m338-82l-416 0c-6 0-10 5-10 12 0 8 4 13 10 13l416 0c6 0 10-5 10-13 0-7-4-12-10-12z m-323-52l-40 0 0-49 40 0z m69 0l-40 0 0-49 40 0z m68 0l-39 0 0-49 39 0z m69 0l-40 0 0-49 40 0z m69 0l-40 0 0-49 40 0z m-275-79l-40 0 0-50 40 0z m69 0l-40 0 0-50 40 0z m68 0l-39 0 0-50 39 0z m69 0l-40 0 0-50 40 0z m69 0l-40 0 0-50 40 0z"/>
<glyph unicode="&#111;" d="M255 512c-24 0-44-22-43-47 0-26 21-57 45-56 25 0 44 32 43 57 0 26-20 46-45 46z m1-164l29 41c2 3 5 4 8 4l32-6c11-2 17-11 18-16 4-31 7-50 8-66 0-4-1-8-4-11-2-2-6-4-10-4l-162 0c-4 0-8 2-10 4-3 3-4 7-4 11 1 16 4 35 8 66 1 5 7 14 18 16l32 6c3 0 6-1 8-4z m-161-94c-25 0-44-22-44-47 1-26 21-57 46-56 24 0 43 32 43 58-1 25-21 46-45 45z m1-164l29 42c2 2 5 4 8 3l31-6c11-2 17-10 19-16 7-53 10-70 7-100-1-8-7-13-14-13l-161 0c-7 0-13 5-14 13-3 30 0 47 7 100 2 6 8 14 19 16l32 6c3 1 5-1 7-3z m148 164c0 7 5 12 12 12 7 0 12-5 12-12l0-50 46-27c6-3 8-10 4-16-3-6-10-8-16-4l-46 26-46-26c-6-4-13-2-16 4-4 6-2 13 4 16l46 27z m172 0c-25 0-44-22-44-47 1-26 21-57 45-56 25 0 44 32 44 58-1 25-21 46-45 45z m0-164l30 42c2 2 4 4 7 3l32-6c11-2 17-10 19-16 7-53 10-70 7-100-1-8-7-13-14-13l-161 0c-7 0-13 5-14 13-3 30 0 47 7 100 2 6 8 14 19 16l31 6c3 1 6-1 8-3z"/>
<glyph unicode="&#112;" d="M463 432c-40 40-127 43-206 43 0 0 0 0 0 0-78 0-165-3-205-43-38-38-52-115-52-175 0-60 14-137 52-175 40-40 127-44 205-44l0 0c79 0 166 4 206 44 38 38 51 115 51 175 0 60-13 137-51 175z m-20-331c-31-31-108-35-186-35-78 0-155 4-186 35-32 32-44 104-44 156 0 52 12 123 44 156 31 31 108 35 186 35 78 0 155-4 186-35 32-33 44-104 44-156 0-52-12-124-44-156z m-64 179l-170 79c-5 2-11 4-16 4-17 0-29-14-29-32l0-150c0-19 12-32 29-32 5 0 11 1 16 3l170 80c16 7 18 19 18 24 0 4-2 16-18 24z m-182-103c-2-1-3-1-4-1l0 0c-1 0-1 2-1 5l0 150c0 3 0 4 1 4 1 0 2 0 4-1l169-78z"/>
<glyph unicode="&#113;" d="M0 461l512 0 0-103-512 0z m0-307l512 0 0-103-512 0z m0 153l512 0 0-102-512 0z"/>
<glyph unicode="&#114;" d="M479 474l-438 0c-23 0-41-18-41-41l0-252c0-23 18-41 41-41l438 0c22 0 41 18 41 41l0 252c0 23-19 41-41 41z m12-293c0-7-5-13-12-13l-438 0c-7 0-13 6-13 13l0 252c0 7 6 13 13 13l438 0c7 0 12-6 12-13z m-128-118l-31 0 0 63-145 0 0-63-31 0c-8 0-14-7-14-15 0-7 6-14 14-14l207 0c8 0 15 7 15 14 0 8-7 15-15 15z m-59 1l-88 0 0 34 88 0z m-43 239c36 0 63 41 63 78 0 35-25 57-63 57-38 0-63-22-63-57 0-37 27-78 63-78z m0 106c16 0 35-4 35-28 0-24-18-49-35-49-17 0-35 25-35 49 0 24 19 28 35 28z m46-106c-13 2-25-3-31-14l-15-28-15 28c-4 9-13 14-25 14-3 0-5-1-7-1-7-2-26-10-35-23-13-18-18-34-25-79-1-5 0-9 3-12 3-3 7-5 11-5l186 0c4 0 8 2 11 5 3 3 4 7 3 12-6 37-18 67-24 77-12 22-27 25-37 26z m-122-91c5 29 9 39 17 51 3 4 15 10 19 11 1 0 1 0 1 0l22-40c7-14 28-14 35 0l21 41 3 0c7-1 11-2 16-12 3-5 12-25 18-51l-152 0z"/>
<glyph unicode="&#115;" d="M272 284c-22 3-43-4-57-18-14-13-20-33-18-54 1-7 7-12 14-12 1 0 2 0 2 0 8 1 14 8 13 16-2 12 1 23 9 30 8 8 20 12 33 10 7-1 15 4 16 12 1 8-4 15-12 16z m-15 63c-67 0-122-55-122-122 0-68 55-122 122-122 68 0 122 54 122 122 0 67-54 122-122 122z m0-216c-51 0-93 42-93 94 0 51 42 93 93 93 52 0 94-42 94-93 0-52-42-94-94-94z m190 275l-95 0 0 35c0 20-14 33-33 33l-120 0c-19 0-33-13-33-33l0-35-98 0c-37 0-68-30-68-68l0-227c0-37 30-68 68-68l379 0c37 0 68 31 68 68l0 227c0 38-31 68-68 68z m39-295c0-21-17-39-39-39l-379 0c-22 0-40 18-40 39l0 227c0 22 18 40 40 40l112 0c8 0 15 6 15 14l0 49c0 4 1 5 4 5l120 0c3 0 4-1 4-5l0-49c0-8 7-14 15-14l109 0c21 0 39-18 39-40l0-227z m-374 210c0-11-9-19-19-19-11 0-20 8-20 19 0 11 9 19 20 19 10 0 19-8 19-19z"/>
<glyph unicode="&#116;" d="M223 168l-148 0-75 128 75 128 148 0 75-128z m-139 16l130 0 65 112-65 112-130 0-65-112z m363-136l-129 0-65 108 65 108 129 0 64-108z m-120 16l111 0 55 92-55 92-111 0-55-92z m98 240l-91 0-46 80 46 80 91 0 46-80z m-82 16l73 0 36 64-36 64-73 0-37-64z"/>
<glyph unicode="&#117;" d="M387 493l-265 0c-67 0-122-55-122-122l0-227c0-67 55-122 122-122l265 0c67 0 122 55 122 122l0 227c0 67-55 122-122 122z m93-349c0-51-41-93-93-93l-265 0c-52 0-94 42-94 93l0 227c0 52 42 94 94 94l265 0c52 0 93-42 93-94z m-226 130c43 0 75 50 75 94 0 40-29 67-75 67-45 0-75-27-75-67 0-44 33-94 75-94z m0 132c18 0 47-5 47-38 0-29-22-66-47-66-24 0-46 37-46 66 0 33 29 38 46 38z m60-135c-16 2-30-4-36-17l-23-46-23 46c-5 10-17 16-30 16-3 0-6-1-9-1-8-2-32-14-42-29-17-26-23-52-32-112-1-7 3-14 10-16 1 0 40-13 125-13 84 0 126 17 127 17 6 3 10 9 9 16-8 51-24 91-31 105-15 28-33 31-45 34z m-60-143c-54 0-89 5-105 9 8 50 13 69 25 87 5 7 22 16 26 17 1 0 1 0 2 0 3 0 4 0 4 0l29-58c9-17 31-17 39 1l29 57c1 2 3 2 7 1 9-1 15-2 24-18 5-9 18-41 26-84-16-5-52-12-106-12z"/>
<glyph unicode="&#118;" d="M442 448l-286 0c-35 0-64-29-64-64l0-28-28 0c-35 0-64-29-64-64l0-168c0-35 29-64 64-64l286 0c35 0 63 29 63 64l0 6 29 0c35 0 63 29 63 64l0 190c0 35-28 64-63 64z m-56-324c0-20-16-37-36-37l-286 0c-20 0-37 17-37 37l0 168c0 20 17 36 37 36l286 0c20 0 36-16 36-36z m92 70c0-20-16-36-36-36l-29 0 0 134c0 35-28 64-63 64l-230 0 0 28c0 20 16 37 36 37l286 0c20 0 36-17 36-37z m-284-6l-92 0c-8 0-14-6-14-14 0-7 6-14 14-14l92 0c7 0 13 7 13 14 0 8-6 14-13 14z m0 71l-92 0c-8 0-14-6-14-14 0-7 6-14 14-14l92 0c7 0 13 7 13 14 0 8-6 14-13 14z"/>
<glyph unicode="&#119;" d="M233 218l-100 0 0 59 100 0 0 104 61 0 0-104 100 0 0-59-100 0 0-104-61 0z m185-148l-61 0 0 36 61 0 0 63 37 0 0-63 60 0 0-36-60 0 0-63-37 0z m-358 329l-60 0 0 36 60 0 0 63 37 0 0-63 61 0 0-36-61 0 0-63-37 0z"/>
<glyph unicode="&#120;" d="M512 261c-18-36-51-72-85-107 16 2 37 4 52 4l13 0c13 30 20 63 20 98 0 2 0 3 0 5z m-188-164l0 41c79 75 134 128 134 172 0 30-17 46-44 46-22 0-39-15-55-31l-39 38c31 33 60 50 104 50 14 0 27-3 39-7-46 64-122 106-207 106-141 0-256-115-256-256 0-141 115-256 256-256 81 0 154 38 201 97z m-33 0l-197 0 0 58 68 0 0 179-58 0 0 44c33 7 55 16 77 29l52 0 0-252 58 0z"/>
<glyph unicode="&#121;" d="M35 457l38 0 0 35c0 11 9 20 20 20 11 0 20-9 20-20l0-87c0-11-9-20-20-20-11 0-20 9-20 20l0 16-36 0 0-75 376 0 0 75-39 0 0 36 42 0c18 0 33-15 33-34l0-171c-10 6-22 10-36 12l0 58-376 0 0-215 208 0c1-12 5-24 9-36l-219 0c-9 0-18 4-24 10-6 6-10 15-10 24l0 318c0 19 15 34 34 34z m197-51c0-12-9-20-20-20-11 0-20 8-20 20l0 15-55 0 0 36 55 0 0 35c0 11 9 20 20 20 11 0 20-9 20-20z m118-1c0-11-9-20-20-20-11 0-20 9-20 20l0 16-54 0 0 36 54 0 0 35c0 11 9 20 20 20 11 0 20-9 20-20z m-246-135l43 0c6 0 11-4 11-10l0-18c0-6-5-12-11-12l-43 0c-6 0-11 6-11 12l0 18c0 6 5 10 11 10z m100-72l44 0c5 0 10-4 10-10l0-2c-4-9-8-18-10-28l-44 0c-6 0-10 5-10 10l0 20c0 6 4 10 10 10z m-101 0l45 0c5 0 10-4 10-10l0-20c0-5-5-10-10-10l-45 0c-5 0-10 5-10 10l0 20c0 6 5 10 10 10z m201 72l44 0c5 0 9-3 10-7-23-4-44-14-62-29-1 2-2 4-2 7l0 20c0 5 5 9 10 9z m-100 0l44 0c5 0 10-4 10-9l0-20c0-6-5-11-10-11l-44 0c-6 0-10 5-10 11l0 20c0 5 4 9 10 9z m182-57c-24 0-46-10-62-26-16-16-26-38-26-63 0-24 10-46 26-62 16-16 38-26 62-26 25 0 47 10 63 26 16 16 26 38 26 62 0 25-10 47-26 63-16 16-38 26-63 26z m-88-1c23 23 54 37 88 37 35 0 66-14 88-37 23-22 37-53 37-88 0-34-14-65-37-88-22-22-53-36-88-36-34 0-65 14-88 36-22 23-36 54-36 88 0 35 14 66 36 88z m70-87c0-5 2-10 6-14 7-7 18-7 25 0 7 8 7 19 0 26-4 4-9 6-14 5l-30 31c-4 4-12 4-17 0-5-5-5-13 0-17z"/>
<glyph unicode="&#122;" d="M22 94c5-6 0-16 9-25 5-5 19-3 24-9 6-5 4-19 9-24 10-10 18-2 26-11 0 0 4-4-2-6-7-2-72-15-72-15-11-2-18 5-16 16l15 72c0 0 3 6 7 2z m352 302l-285-285c-6-6-6-16 0-22 3-3 7-5 11-5 5 0 9 2 12 5l285 285z m-40 41l-285-285c-6-7-6-17 0-23 3-3 7-5 11-5 4 0 8 2 11 5l286 285z m80-80l-285-285c-7-7-7-17 0-23 3-3 7-5 11-5 4 0 8 2 11 5l286 285z m5 123c7 0 15-3 20-8l33-33c5-5 8-12 8-20 0-7-3-14-7-19-1 0-2-1-2-1-1-1-1-1-1-1 0 0-1-1-1-1l-15-15-72 73 14 14c1 0 1 1 2 1 0 0 0 1 1 1 0 1 1 1 1 2 5 4 12 7 19 7m0 21c-13 0-25-4-35-14 0 0 0-1-1-1 0 0 0-1 0-1l-31-30 102-103 31 31c0 0 0 0 0 0 1 0 1 1 2 1 19 20 19 51 0 70l-33 33c-10 10-22 14-35 14z"/>
<glyph unicode="&#65;" d="M258 512c-97 0-176-79-176-176 0-123 159-317 166-325 2-3 6-5 10-5 0 0 0 0 0 0 4 0 8 2 10 5 7 7 166 187 166 325 0 97-79 176-176 176z m1-471c-36 45-149 199-149 295 0 82 66 149 148 149 82 0 149-67 149-149 0-108-113-252-148-295z m-3 392c-53 0-96-42-96-95 0-53 43-96 96-96 53 0 96 43 96 96 0 53-43 95-96 95z m0-164c-38 0-68 31-68 69 0 37 30 68 68 68 38 0 68-31 68-68 0-38-30-69-68-69z"/>
<glyph unicode="&#66;" d="M333 11c-6 0-10 4-10 10l0 107c0 6 4 10 10 10l107 0c6 0 10-4 10-10 0-6-4-10-10-10l-97 0 0-97c0-6-4-10-10-10z m0-10l-184 0c-11 0-21 9-21 20l0 366c0 11 10 20 21 20l291 0c11 0 21-9 21-20l0-259c0-5-3-11-6-14l-107-107c-4-4-9-6-15-6z m-164 41l156 0 95 94 0 231-251 0z m145 267l-105 0c-6 0-10 5-10 10 0 6 4 11 10 11l105 0c5 0 10-5 10-11 0-5-5-10-10-10z m69-54l-174 0c-6 0-10 5-10 10 0 6 4 11 10 11l174 0c6 0 10-5 10-11 0-5-4-10-10-10z m0-54l-174 0c-6 0-10 5-10 11 0 5 4 10 10 10l174 0c6 0 10-5 10-10 0-6-4-11-10-11z m-101-54l-73 0c-6 0-10 5-10 11 0 5 4 10 10 10l73 0c6 0 10-5 10-10 0-6-4-11-10-11z m-138-73l-71 0c-11 0-21 10-21 21l0 379c0 11 10 20 21 20l294 0c11 0 21-9 21-20l0-80c0-11-10-20-21-20-11 0-20 9-20 20l0 59-254 0 0-338 51 0c11 0 20-9 20-20 0-11-9-21-20-21z m136 357l-120 0c-23 0-41 18-41 40 0 23 18 41 41 41l120 0c23 0 41-18 41-41 0-22-18-40-41-40z"/>
<glyph unicode="&#67;" d="M240 386l45 0 0-354-45 0z m22-82c-26 0-47 21-47 47l-36 0c0-46 37-84 83-84 46 0 84 38 84 84l-37 0c0-26-21-47-47-47z m109 47c0-60-49-109-109-109-60 0-108 49-108 109l-42 0c0-83 67-151 150-151 83 0 151 68 151 151z m64 0c0-96-78-173-173-173-95 0-172 77-172 173l-45 0c0-120 97-218 217-218 120 0 218 98 218 218z m-254-300l167 0 0-38-167 0z m50 349l63 0 0-21-63 0z m71-39l49 0 0-21-49 0z m65 0l49 0 0-21-49 0z m62-1l56 0 0-20-56 0z m-255 1l49 0 0-21-49 0z m-65 0l49 0 0-21-49 0z m-69-1l56 0 0-21-56 0z m9 112l35 0 0-104-35 0z m67 0l35 0 0-104-35 0z m64 0l36 0 0-104-36 0z m128 0l36 0 0-104-36 0z m67 0l35 0 0-104-35 0z m64 0l36 0 0-104-36 0z m-194 40l35 0 0-104-35 0z"/>
<glyph unicode="&#68;" d="M280 238c0-3-1-5-3-7l-133-133c-2-2-4-3-7-3-2 0-5 1-6 3l-15 14c-2 2-3 4-3 7 0 2 1 5 3 6l113 113-113 112c-2 2-3 4-3 7 0 2 1 4 3 6l15 14c1 2 4 3 6 3 3 0 5-1 7-3l133-133c2-2 3-4 3-6z m109 0c0-3-1-5-2-7l-134-133c-1-2-4-3-6-3-3 0-5 1-7 3l-14 14c-2 2-3 4-3 7 0 2 1 5 3 6l112 113-112 112c-2 2-3 4-3 7 0 2 1 4 3 6l14 14c2 2 4 3 7 3 2 0 5-1 6-3l134-133c1-2 2-4 2-6z"/>
<glyph unicode="&#69;" d="M434 160l-96 96 96 96c4 4 4 10 0 14l-68 68c-4 4-10 4-14 0l-96-96-96 96c-4 4-11 4-14 0l-68-68c-2-1-3-4-3-7 0-2 1-5 3-7l96-96-96-96c-2-2-3-5-3-7 0-3 1-6 3-7l68-68c1-2 4-3 7-3 2 0 5 1 7 3l96 96 96-96c2-2 5-3 7-3 3 0 5 1 7 3l68 68c4 4 4 10 0 14z"/>
<glyph unicode="&#71;" d="M368 67c9-9 9-18 0-25-8-9-17-9-24 0 0 0-201 202-201 202-8 8-8 16 0 25 0 0 201 202 201 202 7 9 16 9 24 0 9-7 9-16 0-25 0 0-183-190-183-190 0 0 183-189 183-189"/>
<glyph unicode="&#72;" d="M144 67c0 0 183 189 183 189 0 0-183 190-183 190-9 9-9 18 0 25 8 9 17 9 24 0 0 0 201-202 201-202 8-9 8-17 0-25 0 0-201-202-201-202-7-9-16-9-24 0-9 7-9 16 0 25"/>
<glyph unicode="&#70;" d="M154 374c0 0 204-118 204-118 0 0-204-118-204-118 0 0 0 236 0 236"/>
</font>
</defs>
</svg>
